PathFileType	4	(X/Y/Z)	11_2_81_p0_0-244_filt_butterworth.trc
DataRate	CameraRate	NumFrames	NumMarkers	Units	OrigDataRate	OrigDataStartFrame	OrigNumFrames
60.0	60.0	6	27	m	60.0	0	244
Frame#	Time	RHip			RKnee			RAnkle			RBigToe			RSmallToe			RHeel			LHip			LKnee			LAnkle			LBigToe			LSmallToe			LHeel			Neck			Head			Nose			RShoulder			RElbow			RWrist			RThumb			RIndex			RPinky			LShoulder			LElbow			LWrist			LThumb			LIndex			LPinky			
		X1	Y1	Z1	X2	Y2	Z2	X3	Y3	Z3	X4	Y4	Z4	X5	Y5	Z5	X6	Y6	Z6	X7	Y7	Z7	X8	Y8	Z8	X9	Y9	Z9	X10	Y10	Z10	X11	Y11	Z11	X12	Y12	Z12	X13	Y13	Z13	X14	Y14	Z14	X15	Y15	Z15	X16	Y16	Z16	X17	Y17	Z17	X18	Y18	Z18	X19	Y19	Z19	X20	Y20	Z20	X21	Y21	Z21	X22	Y22	Z22	X23	Y23	Z23	X24	Y24	Z24	X25	Y25	Z25	X26	Y26	Z26	X27	Y27	Z27	
0	0.0	0.36647567276635745	0.9047595498110711	0.5834037460973701	0.3636725399564581	0.4702492298912587	0.6324345414949374	0.3562316634790139	0.06356160241910674	0.7027458623100236	0.35020074035009063	0.06914085805791884	0.5407091126440479	0.4006572525293876	0.06909293811967014	0.5647662709830187	0.33609039388383416	-0.016984625392328145	0.7952476580229647	0.1618518127454009	0.901622423234918	0.5784111808207009	0.15842296965488756	0.454364259366925	0.6452812720702911	0.18465057988037056	0.07885829065055815	0.6935155909796272	0.19698456557292904	0.08498768186491416	0.5164855391199551	0.1378201495426307	0.08239895231120636	0.5687620695993145	0.18880724089752615	0.015509882227154062	0.7525680183579313	0.2687426316156011	1.4479908356256543	0.5589669984298058	0.2713573930047355	1.6905170734259096	0.5278123218469435	0.26221832583651844	1.5529256811787515	0.44528260723700297	0.4048740565370492	1.3608312689672597	0.5728357733080925	0.43985504506482836	1.0787535518272378	0.5689405056351571	0.35332555241297653	0.8790696888918242	0.4558115003543763	0.2618487538729934	0.804861156734975	0.4480390249099704	0.2626504936348055	0.7855096318191606	0.4506819886002217	0.269365617444308	0.7788049196914347	0.46500959123318863	0.11447325599826225	1.355464141817217	0.5889791536099782	0.08945261392519016	1.1052959260028978	0.5328173233894117	0.18282274511427235	0.9187564696070127	0.43796842279552306	0.2628745435508648	0.851949301406936	0.4329429572265476	0.26519499830758414	0.8143237093452688	0.4322742049156359	0.2544039952109299	0.796153239586922	0.4577246003264665	
1	0.0166666666666666	0.3654749268651832	0.9001731965696679	0.5920771296959417	0.3638705324694816	0.467542881610295	0.6330496880509291	0.35574986903600236	0.0649136084853149	0.7003675157797383	0.35269849954585747	0.07239990714900382	0.5337438216066412	0.4009351060908173	0.07141723709140266	0.5644677319899017	0.33601834085355126	-0.016713158265392776	0.7950734205964732	0.16166700250562133	0.900330351645443	0.5785476904251475	0.15884276407654382	0.45336100611207797	0.6475101075565475	0.1845939885664094	0.07963062208959115	0.6938496355659454	0.2000068522724071	0.08911793432150643	0.5096775998995275	0.14110347107986615	0.08703938086364225	0.5619340205698599	0.18863857410572454	0.01598938980446767	0.7521687858520344	0.2687454972127106	1.4480155367038872	0.5589669396379416	0.2713827263911088	1.6905506240861226	0.5277453457127431	0.2617584180498122	1.5529153603202117	0.4455234258896444	0.40498811290522624	1.360704506374175	0.5739638851214842	0.4392561631877636	1.0812543877666396	0.5668311081909667	0.35330824124038485	0.8814279739253235	0.4540944762186172	0.26368313449401887	0.8055934836615559	0.4437545374905417	0.2628881990139942	0.7877942249843677	0.4505977523829616	0.27071897425095487	0.7810393821046238	0.4654368536600326	0.11439904042176595	1.3548537749709868	0.5882296106283993	0.0895666418547703	1.1044889540513774	0.5328263597522901	0.1839410027528644	0.9167454700511249	0.44372269621684607	0.26284742829127905	0.8493634783551769	0.43344300924008966	0.26642331036197636	0.8149949183519994	0.43346381255530486	0.2547912745215885	0.8002890199044838	0.4567954121602474	
2	0.0333333333333333	0.3647027303173854	0.8964348138249872	0.5990244221589293	0.3640815843202716	0.46513302650226895	0.633766028223521	0.35534907221087053	0.06603939379512841	0.6983853214766972	0.3542160224311907	0.0747564260231117	0.5293431265152844	0.4010706975666621	0.07287171562074499	0.5643288427226562	0.3359601120869362	-0.016498747567845515	0.7949436709797241	0.16151634405699616	0.8992696846232974	0.5786623312273357	0.15919088351451663	0.4525482356582881	0.6493872418814085	0.18453845053722687	0.08035442401066138	0.6941847829071103	0.20189591356048192	0.09195492256278974	0.5054182244451406	0.1431925651595399	0.0899779155195684	0.5575982127128158	0.188486329157635	0.0164256772618644	0.7518893719237851	0.26874244909271217	1.44803872474889	0.5589701884678745	0.27140224057823154	1.690574540907929	0.5276956969030846	0.26160394140008936	1.5529455233744813	0.44546890659233207	0.4050526781885313	1.3606495691661473	0.574479079436852	0.4390572418828219	1.0821978964441896	0.5663718023815745	0.35352561683448785	0.8827866182071882	0.4535068093166755	0.2650666473262932	0.805979620179127	0.4405202276985657	0.26306117068731794	0.7891472068574633	0.45056459974651025	0.2718188753363584	0.7824283879347301	0.46581173045891144	0.11437514977798957	1.3546596734342007	0.5880824222358836	0.08960728810551934	1.1042407898646418	0.5328160353585037	0.1846063078492545	0.9159390777090243	0.44748809357158587	0.2627386105557783	0.8482230569863679	0.4338161094979613	0.2674211667309545	0.8158622828275028	0.4343808215503008	0.2549008710337142	0.8030214106884348	0.45636438174182903	
3	0.05	0.36414014986065374	0.89347844586384	0.6043896101854767	0.3643008865605906	0.4630081180815096	0.6345577332258189	0.3550229625391603	0.0669564966496753	0.6967685615229404	0.354958522495937	0.07639553794165085	0.5270071732068348	0.4011114542297611	0.07362324768276944	0.5643319315184689	0.3359145723833542	-0.016336630308180118	0.7948543514803871	0.16139727723210076	0.8984231829725282	0.5787569659316122	0.1594733250269707	0.45190783759104897	0.6509380014195639	0.18448458564475476	0.08102796683321564	0.6945174459061668	0.20287013340271673	0.09373850024746644	0.5032184078606893	0.14431664368718086	0.0915429862239301	0.5552776609965347	0.18834991273012586	0.016820714704446155	0.7517185223714911	0.26873530625194036	1.4480599617961674	0.5589764761826395	0.27141664930193427	1.690591389255889	0.5276610085314989	0.26172420170442207	1.553000154338301	0.44529278934679634	0.40506527005956905	1.3606628642213408	0.5744233811233626	0.4391610959805831	1.081988324775307	0.5671337123991824	0.3538971593243151	0.8833548314896138	0.4537663269612372	0.2660607693243751	0.8060957529215853	0.4381932781803278	0.2631767548245675	0.7897367483437514	0.45056998969172257	0.27268350016900583	0.7831349688555892	0.46613450849927773	0.11438956601693699	1.354778497049574	0.5883868515210434	0.08959520563650725	1.104409543441208	0.5327919296335293	0.18491425358261945	0.9160254140504438	0.4496251175140886	0.2625741963070562	0.8481753007799616	0.4340778201195722	0.26819799334207234	0.8167945026738173	0.435055971760026	0.25481688140557285	0.8046201541545928	0.4562792171288458	
4	0.0666666666666666	0.36376825223267756	0.8912381369730362	0.6083166804747278	0.3645236302422009	0.4611566098623458	0.6353989742709283	0.3547652295564138	0.06768245535008384	0.6954865180405079	0.3551312132299429	0.07750236616602922	0.5262361075181502	0.4011048033529532	0.07383870725254815	0.5644593267145275	0.33588058654217035	-0.01622204349489078	0.7948014044061322	0.16130724186351042	0.8977736074971823	0.5788334572423239	0.15969608567207083	0.4514217014958536	0.6521877125457042	0.18443301374092486	0.08164952097670015	0.6948440374661612	0.20314789576467482	0.09470852103423907	0.5025891452500684	0.14470491856831788	0.0920630229216729	0.5544953803893692	0.18822873150006542	0.01717647223731463	0.7516449829934595	0.2687258876867299	1.4480788098812238	0.5589855340452714	0.27142666629804757	1.6906037344945617	0.5276389137115168	0.2620885047798826	1.5530632372084108	0.4451688141547675	0.40502340619094396	1.3607407984179187	0.5738388150501832	0.43947054031162713	1.0810299196754098	0.5686879624359921	0.3543423488388962	0.8833418235247956	0.4545908564649884	0.26672697744282325	0.8060180685228273	0.4366308715821135	0.26324229759553347	0.7897310203485364	0.4506013812194537	0.2733310282173845	0.7833221565410357	0.46640547465058424	0.11443027108861206	1.3551069056598237	0.5889921615724906	0.08955104740680393	1.1048533247795937	0.5327596220028429	0.1849604331321362	0.9166926005451168	0.4504942706987003	0.26238029150780656	0.8488674732154101	0.43424370322433187	0.2687632161228838	0.8176602777929808	0.4355200030438824	0.2546234022954303	0.8053549925187752	0.45638762637893254	
5	0.0833333333333333	0.36356810417114643	0.889647931439387	0.6109496197258263	0.3647450064168648	0.4595669553591064	0.6362639225719549	0.35456956279817287	0.06823480819748182	0.6945084731514397	0.3549393081230559	0.07826203395765183	0.5265300752860895	0.4010981722090783	0.07368496830515078	0.5646933566480202	0.33585701936274964	-0.016150224136472158	0.7947807720646298	0.1612436777838005	0.8973037190013066	0.5788936678638175	0.15986516250798175	0.45107171695819526	0.6531617016345191	0.18438435467766895	0.08221735686056145	0.6951609704901388	0.20294758461192	0.09510483858180668	0.5030414317171741	0.1445866017084802	0.09186645555773851	0.5547743858596733	0.18812219214432196	0.017494919965571298	0.7516574995879977	0.268716012393416	1.448094831039564	0.5589970933188064	0.2714330053024024	1.690614141988507	0.5276270455566704	0.2626661564435439	1.5531187559815522	0.44527072101797677	0.40492460425526167	1.3608797786340443	0.5727674060864821	0.4398883897065347	1.0797269280599153	0.5706056766842064	0.3547806655072615	0.8829568040649277	0.4556982251406163	0.2671267486361968	0.8058227536167474	0.43569019055020897	0.26326514517000743	0.7892981937771205	0.4506462333305594	0.2737796389499825	0.7831529826649029	0.4666249157822848	0.1144852469430189	1.3555415591076652	0.5897476154788381	0.08949546637547956	1.1054302438783148	0.532724691891922	0.184840439676982	0.9176287586627752	0.4504560557797678	0.2621830021207236	0.8499468377721641	0.4343293209316508	0.2691262610009432	0.8183283080870299	0.4358036552612735	0.2544045303615531	0.805495667996798	0.45653731754972476	
